<?xml version="1.0" encoding="UTF-8"?>
<svg width="32" height="32" viewBox="0 0 32 32" fill="none" xmlns="http://www.w3.org/2000/svg">
    <rect width="32" height="32" rx="8" fill="#3B82F6"/>
    <path d="M16 8C12.6863 8 10 10.6863 10 14C10 15.7652 10.8036 17.3536 12.1066 18.4725C12.0371 18.5136 12 18.5923 12 18.6829V22C12 22.5523 12.4477 23 13 23H19C19.5523 23 20 22.5523 20 22V18.6829C20 18.5923 19.9629 18.5136 19.8934 18.4725C21.1964 17.3536 22 15.7652 22 14C22 10.6863 19.3137 8 16 8ZM16 10C18.2091 10 20 11.7909 20 14C20 16.2091 18.2091 18 16 18C13.7909 18 12 16.2091 12 14C12 11.7909 13.7909 10 16 10Z" fill="white"/>
</svg>
